<svg xmlns="http://www.w3.org/2000/svg" viewBox="0 0 1235 365.56"><g id="图层_2" data-name="图层 2"><g id="图层_1-2" data-name="图层 1"><path d="M408.11,296.37l-177-177.57C298.08,57.1,351.9,29.53,352.55,28.88c4.6-2.63,7.88-7.22,7.22-13.13-.65-5.25-3.94-9.84-9.19-11.16C340.74,1.31,329.58,0,317.77,0,272.48,0,220,23,174,61L157,44a12.71,12.71,0,0,0-18.38,0L111,70.88a12.69,12.69,0,0,0,0,18.38l17.07,17.07C78.86,166.05,56.55,235,73,284.85c2,5.25,5.9,8.53,11.15,9.19h1.32a13.84,13.84,0,0,0,11.81-7.22,744.05,744.05,0,0,1,88.6-122.74L380.78,359.67a12.68,12.68,0,0,0,18.37,0l26.91-26.91a12.69,12.69,0,0,0,0-18.38l-17.95-18m-261-226.89,7.22,7.22-8.53,8.53L138.59,78Zm45.94,47.26L189.78,120c-.65.65-1.31,2-2.62,2.62L176,133.8l-2,2a697,697,0,0,0-79.42,103C97.9,195.5,125.46,143,168.78,99h0c42-42,92.54-68.91,135.86-74.16-24.94,16.41-60.38,42.66-99.76,80.07-.66.66-1.31.66-2,1.31ZM390,329.39,203.57,143l8.53-8.53L398.5,320.85Z"/><path d="M30,261.43c1.32,0,2.63,0,3.29-.66a13.11,13.11,0,0,0,9.18-16.4L26.1,186.62a13.12,13.12,0,0,0-16.41-9.18,13.11,13.11,0,0,0-9.18,16.4l16.4,57.75A13.2,13.2,0,0,0,30,261.43Z"/><path d="M139.38,303.68a16.41,16.41,0,0,0,5.05-1.12l41-19.65a11.29,11.29,0,0,0-10.1-20.2l-41,19.64a11.24,11.24,0,0,0-5.05,15.15C131,301.43,134.89,303.68,139.38,303.68Z"/><path d="M126,335.82a11.4,11.4,0,0,0,8.92,14.28L195.6,365c1.19,0,1.79.59,3,.59A11.73,11.73,0,0,0,201,342.37L140.88,326.9C134.34,325.71,127.79,329.28,126,335.82Z"/><path d="M437.65,262.38V100.92H468V238h62.19v24.42Z"/><path d="M680.29,262.38H649.76V190.7H587.35v71.68h-30.3V100.92h30.3v65.13h62.41V100.92h30.53Z"/><path d="M764.64,241.8a45.27,45.27,0,0,0,9.61-1,85.1,85.1,0,0,0,8.71-2.38v21.26a49.72,49.72,0,0,1-11.54,3.62,77.86,77.86,0,0,1-15.15,1.35A47.2,47.2,0,0,1,738,261.25a26,26,0,0,1-12.89-12q-4.76-8.6-4.75-24.2V161.3H704.94V148.86l17.19-10,9-26h19v26.91h31.66V161.3H750.17v63.54q0,8.59,4,12.78A13.81,13.81,0,0,0,764.64,241.8Z"/><path d="M854.64,137.56q23.75,0,37.54,14.69T906,193.19v14.47H830.9q.45,16.74,8.14,25.89t22.16,9.16a77.56,77.56,0,0,0,20-2.38,106.77,106.77,0,0,0,18.43-6.89v22.84a76.51,76.51,0,0,1-18,6.33,109.52,109.52,0,0,1-22.73,2q-17.19,0-30.42-6.89a48.83,48.83,0,0,1-20.69-20.81Q800.38,223,800.37,202q0-31.42,15-47.94T854.64,137.56Zm.45,21a20.84,20.84,0,0,0-16.39,7.35q-6.45,7.35-7.35,21.82h46.13q-.22-12.66-5.65-20.92T855.09,158.59Z"/><path d="M982,137.56q22.17,0,33.92,10.4t11.76,32.11v82.31h-21l-5.88-17h-.9q-7.47,10-15.72,14.59t-22.73,4.63q-15.37,0-25.66-9.27t-10.29-28.72q0-19,13.11-28.49t39.58-10.63l19.45-.68v-6.1q0-11.76-4.87-16.74T979,159a55.11,55.11,0,0,0-16.62,2.6,108.21,108.21,0,0,0-15.94,6.44l-9.27-19.9a96,96,0,0,1,20.35-7.69A97.29,97.29,0,0,1,982,137.56Zm15.83,66.93-12.89.45q-16,.69-22.38,6.45t-6.34,15.49q0,8.82,4.41,12.55t11.65,3.73A25.23,25.23,0,0,0,990.32,236q7.47-7.12,7.46-21.15Z"/><path d="M1195.2,137.56q19.89,0,29.85,10.62t10,34.38v79.82h-29.62V188q0-27.36-18.55-27.36-13.11,0-18.54,9.72t-5.43,28.27v63.77H1133V188q0-27.36-18.54-27.36-13.8,0-18.77,10.86t-5,31v59.92h-30.07V139.82h23.06l4.3,16.05h1.36a32.3,32.3,0,0,1,14-13.9,44.24,44.24,0,0,1,20.12-4.41q12.9,0,21.6,4.52a30.49,30.49,0,0,1,13.46,14.47h1.58a34.34,34.34,0,0,1,15-14.47A45.39,45.39,0,0,1,1195.2,137.56Z"/></g></g></svg>